# xmcd
#
# Track frame offsets: 
#        150
#        17345
#        28726
#        47981
#        67066
#        89890
#        103774
#        120961
#        137144
#        155182
#        178320
#        198377
#        216907
#        236588
#        253845
#        265353
#
# Disc length: 3818 seconds
#
# Revision: 0
# Processed by: cddbd v1.5.2PL0 Copyright (c) Steve Scherf et al.
# Submitted via: ExactAudioCopyFreeDBPlugin 1.0
#
DISCID=f80ee810
DTITLE=Maverick Music - Vol 1, Issue 117
DYEAR=2012
DGENRE=Americana
TTITLE0=Rant 'n' Rave - Little Girl
TTITLE1=The Good Intentions - Everybody Loves a Drinking Man
TTITLE2=Matraca Berg - Love's Truck Stop
TTITLE3=The Kennedys - I'll Come Over
TTITLE4=Bob Cheevers - Every Doubt Has a Shadow
TTITLE5=Linda Watkins - Blue Velvet Sky
TTITLE6=The Malingerers - Hell Child
TTITLE7=Blame Sally - Bird in Hand
TTITLE8=Scott Kiers - Jackals
TTITLE9=The Vagabond - The Ballad of El Molino
TTITLE10=Jan Bell - Yorkshire Water
TTITLE11=Van Preston - Damn the Lies
TTITLE12=Ned Evett - Say Goodbye for Both of Us
TTITLE13=Something Blue - Mr Jones
TTITLE14=Buffalo Girls - Captain Had a Bulldog
TTITLE15=Deborah Bonham - Bring out The Joy
EXTD=
EXTT0=
EXTT1=
EXTT2=
EXTT3=
EXTT4=
EXTT5=
EXTT6=
EXTT7=
EXTT8=
EXTT9=
EXTT10=
EXTT11=
EXTT12=
EXTT13=
EXTT14=
EXTT15=
PLAYORDER=
